# ProBuilder 6.0.5
# https://unity3d.com/unity/features/worldbuilding/probuilder
# 30/10/2025 02:03:37 a. m.

mtllib ./Tornillo.mtl
o Tornillo

g Tornillo (2)
v -0.0006677656 0.002112783 -0.0006000005
v -0.001869805 0.00182341 -0.0006000004
v -0.001870469 0.002345495 -0.0006000004
v -0.0006675625 0.002924784 -0.0006000004
v -0.0006679688 0.001300782 -0.0006000006
v -0.002285373 0.001301156 -0.0006000006
v -0.000667563 -0.002924784 -0.0005999997
v -0.001870469 -0.002345495 -0.0005999999
v -0.0006677659 -0.002112783 -0.0006000001
v -0.001869805 -0.001823402 -0.0006
v -0.0006679688 -0.001300782 -0.0006000004
v -0.002285373 -0.001301416 -0.0006000003
v 0.001869806 -0.001823573 -0.0006
v 0.0006679688 -0.001301652 -0.0006000001
v 0.002214803 -0.001301652 -0.0006000003
v 0.0006677659 -0.002113218 -0.0006
v 0.00187047 -0.002345494 -0.0005999999
v 0.0006675631 -0.002924784 -0.0005999997
v 0.002214803 0.001301403 -0.0006000006
v 0.0006679688 0.001300782 -0.0006000006
v 0.001869805 0.001823392 -0.0006000004
v 0.0006677657 0.002112783 -0.0006000005
v 0.00187047 0.002345495 -0.0006000004
v 0.0006675626 0.002924784 -0.0006000004
v 0.002702906 -0.001301652 -0.0006
v 0.002702906 0.001301651 -0.0006000003
v -0.002702907 0.001301651 -0.0006000003
v -0.002702907 -0.001301651 -0.0006
v 0.0006675626 0.002924784 0.0005999997
v 0.0006677657 0.002113218 0.0006
v 0.00187047 0.002345495 0.0005999999
v 0.001869805 0.001823138 0.0006000001
v 0.0006679688 0.001301652 0.0006000003
v 0.002285373 0.001301054 0.0006000004
v 0.0006679688 -0.001301652 0.0006000006
v 0.0006677659 -0.002113218 0.0006000005
v 0.001869806 -0.001823573 0.0006000004
v 0.002285373 -0.001301652 0.0006000005
v 0.0006675631 -0.002924784 0.0006000004
v 0.00187047 -0.002345494 0.0006000004
v -0.002285373 -0.001301651 0.0006000005
v -0.001869805 -0.001823573 0.0006000004
v -0.0006679688 -0.001301652 0.0006000006
v -0.0006677659 -0.002113218 0.0006000005
v -0.001870469 -0.002345495 0.0006000004
v -0.000667563 -0.002924784 0.0006000004
v -0.001870469 0.002345495 0.0005999999
v -0.0006677656 0.002112783 0.0006000001
v -0.0006675625 0.002924785 0.0005999997
v -0.001869805 0.001823573 0.0006
v -0.0006679688 0.001300781 0.0006000004
v -0.002285373 0.001301652 0.0006000002
v -0.002702907 0.001301651 0.0006
v -0.002702907 -0.001301651 0.0006000003
v 0.002702906 0.001301651 0.0006
v 0.002702906 -0.001301651 0.0006000003
v 4.470348E-11 -0.002924784 -0.0005999997
v 2.235174E-11 -0.002113 -0.0006
v 0 -0.001301217 -0.0006000003
v 0 0.001300782 -0.0006000006
v 2.235174E-11 0.002112783 -0.0006000005
v 4.470348E-11 0.002924784 -0.0006000004
v 0 -0.001301652 0.0006000006
v 2.235174E-11 -0.002113218 0.0006000005
v 4.470348E-11 -0.002924784 0.0006000004
v 2.235174E-11 0.002113 0.0006000001
v 4.470348E-11 0.002924784 0.0005999997
v 0 0.001301217 0.0006000004
v 0.0006679688 0.0006508261 0.0006000004
v 0.00236107 0.0006505268 0.0006000005
v 0.0006679688 -2.793969E-12 0.0006000006
v 0.002361328 7.945352E-12 0.0006000007
v -0.00236107 0.0006508258 0.0006000003
v -0.0006679688 0.0006503907 0.0006000005
v -0.002361328 -7.881569E-11 0.0006000006
v -0.0006679688 -4.440959E-19 0.0006000006
v -0.0006679688 0.000650391 -0.0006000007
v -0.00236107 0.0006505778 -0.0006000006
v -0.0006679688 1.676381E-11 -0.0006000008
v -0.002361328 -9.218526E-11 -0.0006000008
v 0.0006679688 1.117587E-11 -0.0006000004
v 0.002325785 0.0006507015 -0.0006000006
v 0.002326172 -1.466834E-11 -0.0006000007
v 0.0006679688 0.0006503909 -0.0006000005
v 0.003 -7.152558E-11 -0.0006000001
v 0.002851453 0.0006508256 -0.0006000002
v -0.002851453 0.0006508253 -0.0006000002
v -0.003 -3.337939E-10 -0.0006000001
v -0.002851453 0.0006508254 0.0006
v -0.003 -1.907428E-10 0.0006000001
v 0.002851453 0.0006508258 0.0006
v 0.003 7.152558E-11 0.0006000001
v 0 0.0006506084 0.0006000005
v 0 -1.396985E-12 0.0006000006
v 0 0.0006503909 -0.0006000006
v 0 1.396984E-11 -0.0006000007
v 0.00236107 -0.000650826 0.0006000005
v 0.0006679688 -0.000650826 0.0006000006
v -0.00236107 -0.0006508257 0.0006000004
v -0.0006679688 -0.0006508259 0.0006000006
v -0.0006679688 -0.0006503909 -0.0006000006
v -0.00236107 -0.0006507082 -0.0006000004
v 0.002325785 -0.0006508261 -0.0006000004
v 0.0006679688 -0.0006508258 -0.0006000003
v 0.002851453 -0.0006508258 -0.0006
v -0.002851454 -0.0006508256 -0.0006
v -0.002851454 -0.0006508255 0.0006000002
v 0.002851453 -0.0006508257 0.0006000002
v 0 -0.0006508259 0.0006000006
v 0 -0.0006506084 -0.0006000005
v 0.002702906 0.001301651 -1.551689E-10
v 0.00187047 0.002345495 -2.796047E-10
v 0.0006675626 0.002924784 -3.486614E-10
v -0.0006675625 0.002924784 -3.486614E-10
v -0.001870469 0.002345495 -2.796047E-10
v -0.002702907 0.001301651 -1.551689E-10
v -0.001870469 -0.002345495 2.796048E-10
v -0.002702907 -0.001301651 1.551688E-10
v -0.000667563 -0.002924784 3.486614E-10
v 0.00187047 -0.002345494 2.796047E-10
v 0.0006675631 -0.002924784 3.486614E-10
v 0.002702906 -0.001301651 1.551689E-10
v 4.470348E-11 0.002924784 -3.486614E-10
v 4.470348E-11 -0.002924784 3.486614E-10
v 0.003 0 0
v 0.002851453 0.0006508257 -7.758446E-11
v -0.002851453 0.0006508254 -7.758442E-11
v -0.003 -2.622684E-10 3.126482E-17
v -0.002851454 -0.0006508256 7.758444E-11
v 0.002851453 -0.0006508257 7.758446E-11

vt -0.1112943 0.3521304
vt -0.3116342 0.3039017
vt -0.3117449 0.3909157
vt -0.1112604 0.487464
vt -0.1113281 0.2167969
vt -0.3808955 0.2168592
vt -0.1112605 -0.4874639
vt -0.3117448 -0.3909158
vt -0.1112943 -0.3521304
vt -0.3116341 -0.3039003
vt -0.1113281 -0.2167969
vt -0.3808955 -0.2169026
vt 0.3116342 -0.3039288
vt 0.1113281 -0.2169419
vt 0.3691338 -0.216942
vt 0.1112943 -0.3522029
vt 0.311745 -0.3909156
vt 0.1112605 -0.4874639
vt 0.3691338 0.2169004
vt 0.1113281 0.2167969
vt 0.3116342 0.3038986
vt 0.1112943 0.3521304
vt 0.3117449 0.3909157
vt 0.1112604 0.4874639
vt 0.4504844 -0.2169419
vt 0.4504844 0.2169418
vt -0.4504844 0.2169417
vt -0.4504845 -0.2169417
vt 0.3808956 -0.2169418
vt 0.3808955 0.2169419
vt 2.432407E-09 -0.4874639
vt -1.292884E-09 -0.3521667
vt -5.018176E-09 -0.2168694
vt -1.673117E-09 0.2167969
vt 2.052174E-09 0.3521304
vt 5.777465E-09 0.4874639
vt -0.1113281 0.108471
vt -0.3935117 0.1084211
vt -0.1113281 -2.26897E-08
vt -0.3935547 -2.089982E-08
vt 0.3935117 0.1084709
vt 0.1113281 0.1083984
vt 0.3935547 -4.643019E-08
vt 0.1113281 -3.329424E-08
vt 0.3876309 0.1084502
vt 0.3876953 -1.089987E-08
vt 0.4999999 -1.760617E-08
vt 0.4752421 0.1084709
vt -0.4752421 0.1084708
vt -0.4999999 -7.557175E-08
vt 8.361654E-09 0.1084347
vt 8.361654E-09 -2.074084E-08
vt -0.3935117 -0.108471
vt -0.1113281 -0.108471
vt 0.3935117 -0.1084709
vt 0.1113281 -0.108471
vt 0.3876309 -0.108471
vt 0.4752421 -0.1084709
vt -0.4752422 -0.1084709
vt -3.346229E-09 -0.108471
vt 0.1112605 -0.1
vt -0.1112604 -0.1
vt -0.1112604 0.1
vt 0.1112605 0.1
vt 5.78357E-08 -0.1
vt 5.78357E-08 0.1

vn -4.240994E-10 5.506747E-10 -0.006000001
vn 6.367143E-10 2.037407E-09 0.006000001
vn 0.003740939 0.00469099 -5.592095E-10
vn 0.005405813 0.002603302 -3.103378E-10
vn 0.001335125 0.005849569 -6.973228E-10
vn -0.003740939 0.00469099 -5.592095E-10
vn -0.001335125 0.005849569 -6.973228E-10
vn -0.005405813 0.002603302 -3.103378E-10
vn -0.003740938 -0.00469099 5.592095E-10
vn -0.005405813 -0.002603303 3.103379E-10
vn -0.001335126 -0.005849569 6.973228E-10
vn 0.00374094 -0.004690989 5.592094E-10
vn 0.001335126 -0.005849568 6.973228E-10
vn 0.005405814 -0.002603302 3.103378E-10
vn 8.035828E-10 0.006000001 -7.152557E-10
vn 0 -0.006000001 7.152557E-10
vn 0.005849567 0.001335126 -1.591594E-10
vn 0.006 4.585313E-11 -5.466118E-18
vn -0.005849567 0.001335125 -1.591593E-10
vn -0.006 4.585312E-10 -5.466118E-17
vn -0.005849567 -0.001335125 1.591593E-10
vn 0.005849567 -0.001335126 1.591594E-10

usemtl Tornillos
f 1/1/1 2/2/1 3/3/1
f 4/4/1 1/1/1 3/3/1
f 5/5/1 6/6/1 2/2/1
f 5/5/1 2/2/1 1/1/1
f 7/7/1 8/8/1 9/9/1
f 9/9/1 8/8/1 10/10/1
f 10/10/1 11/11/1 9/9/1
f 10/10/1 12/12/1 11/11/1
f 13/13/1 14/14/1 15/15/1
f 16/16/1 14/14/1 13/13/1
f 17/17/1 16/16/1 13/13/1
f 17/17/1 18/18/1 16/16/1
f 19/19/1 20/20/1 21/21/1
f 20/20/1 22/22/1 21/21/1
f 23/23/1 21/21/1 22/22/1
f 23/23/1 22/22/1 24/24/1
f 13/13/1 25/25/1 17/17/1
f 13/13/1 15/15/1 25/25/1
f 19/19/1 21/21/1 26/26/1
f 21/21/1 23/23/1 26/26/1
f 6/6/1 27/27/1 2/2/1
f 2/2/1 27/27/1 3/3/1
f 28/28/1 10/10/1 8/8/1
f 10/10/1 28/28/1 12/12/1
f 29/4/2 30/1/2 31/3/2
f 30/1/2 32/2/2 31/3/2
f 32/2/2 30/1/2 33/5/2
f 32/2/2 33/5/2 34/6/2
f 35/11/2 36/9/2 37/10/2
f 38/12/2 35/11/2 37/10/2
f 36/9/2 39/7/2 40/8/2
f 37/10/2 36/9/2 40/8/2
f 41/29/2 42/13/2 43/14/2
f 43/14/2 42/13/2 44/16/2
f 42/13/2 45/17/2 44/16/2
f 44/16/2 45/17/2 46/18/2
f 47/23/2 48/22/2 49/24/2
f 47/23/2 50/21/2 48/22/2
f 48/22/2 50/21/2 51/20/2
f 50/21/2 52/30/2 51/20/2
f 47/23/2 53/26/2 50/21/2
f 50/21/2 53/26/2 52/30/2
f 41/29/2 54/25/2 42/13/2
f 54/25/2 45/17/2 42/13/2
f 55/27/2 31/3/2 32/2/2
f 55/27/2 32/2/2 34/6/2
f 56/28/2 38/12/2 37/10/2
f 40/8/2 56/28/2 37/10/2
f 16/16/1 18/18/1 57/31/1
f 16/16/1 57/31/1 58/32/1
f 57/31/1 7/7/1 58/32/1
f 58/32/1 7/7/1 9/9/1
f 14/14/1 16/16/1 58/32/1
f 14/14/1 58/32/1 59/33/1
f 58/32/1 9/9/1 59/33/1
f 59/33/1 9/9/1 11/11/1
f 20/20/1 60/34/1 22/22/1
f 22/22/1 60/34/1 61/35/1
f 61/35/1 60/34/1 1/1/1
f 60/34/1 5/5/1 1/1/1
f 61/35/1 24/24/1 22/22/1
f 61/35/1 62/36/1 24/24/1
f 62/36/1 61/35/1 4/4/1
f 61/35/1 1/1/1 4/4/1
f 35/11/2 63/33/2 36/9/2
f 63/33/2 64/32/2 36/9/2
f 43/14/2 44/16/2 63/33/2
f 63/33/2 44/16/2 64/32/2
f 44/16/2 46/18/2 64/32/2
f 64/32/2 46/18/2 65/31/2
f 36/9/2 64/32/2 39/7/2
f 64/32/2 65/31/2 39/7/2
f 49/24/2 48/22/2 66/35/2
f 49/24/2 66/35/2 67/36/2
f 67/36/2 66/35/2 30/1/2
f 29/4/2 67/36/2 30/1/2
f 48/22/2 51/20/2 68/34/2
f 48/22/2 68/34/2 66/35/2
f 66/35/2 68/34/2 33/5/2
f 30/1/2 66/35/2 33/5/2
f 33/5/2 69/37/2 34/6/2
f 34/6/2 69/37/2 70/38/2
f 69/37/2 71/39/2 70/38/2
f 70/38/2 71/39/2 72/40/2
f 52/30/2 73/41/2 74/42/2
f 51/20/2 52/30/2 74/42/2
f 73/41/2 75/43/2 76/44/2
f 74/42/2 73/41/2 76/44/2
f 77/37/1 6/6/1 5/5/1
f 77/37/1 78/38/1 6/6/1
f 79/39/1 78/38/1 77/37/1
f 79/39/1 80/40/1 78/38/1
f 81/44/1 82/45/1 83/46/1
f 81/44/1 84/42/1 82/45/1
f 84/42/1 19/19/1 82/45/1
f 84/42/1 20/20/1 19/19/1
f 85/47/1 83/46/1 86/48/1
f 86/48/1 83/46/1 82/45/1
f 82/45/1 26/26/1 86/48/1
f 82/45/1 19/19/1 26/26/1
f 6/6/1 78/38/1 27/27/1
f 78/38/1 87/49/1 27/27/1
f 78/38/1 80/40/1 87/49/1
f 80/40/1 88/50/1 87/49/1
f 89/48/2 90/47/2 75/43/2
f 89/48/2 75/43/2 73/41/2
f 53/26/2 89/48/2 73/41/2
f 53/26/2 73/41/2 52/30/2
f 55/27/2 34/6/2 70/38/2
f 91/49/2 55/27/2 70/38/2
f 91/49/2 70/38/2 72/40/2
f 92/50/2 91/49/2 72/40/2
f 93/51/2 71/39/2 69/37/2
f 93/51/2 94/52/2 71/39/2
f 68/34/2 69/37/2 33/5/2
f 68/34/2 93/51/2 69/37/2
f 93/51/2 74/42/2 94/52/2
f 74/42/2 76/44/2 94/52/2
f 51/20/2 93/51/2 68/34/2
f 51/20/2 74/42/2 93/51/2
f 20/20/1 84/42/1 95/51/1
f 20/20/1 95/51/1 60/34/1
f 84/42/1 81/44/1 96/52/1
f 84/42/1 96/52/1 95/51/1
f 60/34/1 95/51/1 77/37/1
f 60/34/1 77/37/1 5/5/1
f 95/51/1 96/52/1 79/39/1
f 95/51/1 79/39/1 77/37/1
f 71/39/2 97/53/2 72/40/2
f 71/39/2 98/54/2 97/53/2
f 98/54/2 38/12/2 97/53/2
f 98/54/2 35/11/2 38/12/2
f 99/55/2 41/29/2 100/56/2
f 41/29/2 43/14/2 100/56/2
f 75/43/2 99/55/2 76/44/2
f 99/55/2 100/56/2 76/44/2
f 79/39/1 101/54/1 102/53/1
f 79/39/1 102/53/1 80/40/1
f 101/54/1 11/11/1 12/12/1
f 101/54/1 12/12/1 102/53/1
f 103/57/1 104/56/1 81/44/1
f 83/46/1 103/57/1 81/44/1
f 15/15/1 14/14/1 104/56/1
f 103/57/1 15/15/1 104/56/1
f 85/47/1 105/58/1 83/46/1
f 105/58/1 103/57/1 83/46/1
f 105/58/1 25/25/1 103/57/1
f 25/25/1 15/15/1 103/57/1
f 106/59/1 80/40/1 102/53/1
f 106/59/1 88/50/1 80/40/1
f 28/28/1 102/53/1 12/12/1
f 28/28/1 106/59/1 102/53/1
f 90/47/2 107/58/2 75/43/2
f 75/43/2 107/58/2 99/55/2
f 107/58/2 54/25/2 99/55/2
f 99/55/2 54/25/2 41/29/2
f 97/53/2 38/12/2 56/28/2
f 97/53/2 56/28/2 108/59/2
f 72/40/2 97/53/2 108/59/2
f 72/40/2 108/59/2 92/50/2
f 76/44/2 100/56/2 94/52/2
f 100/56/2 109/60/2 94/52/2
f 100/56/2 43/14/2 109/60/2
f 43/14/2 63/33/2 109/60/2
f 94/52/2 109/60/2 71/39/2
f 109/60/2 98/54/2 71/39/2
f 109/60/2 63/33/2 98/54/2
f 63/33/2 35/11/2 98/54/2
f 81/44/1 104/56/1 110/60/1
f 81/44/1 110/60/1 96/52/1
f 104/56/1 14/14/1 59/33/1
f 104/56/1 59/33/1 110/60/1
f 59/33/1 11/11/1 110/60/1
f 110/60/1 11/11/1 101/54/1
f 110/60/1 101/54/1 96/52/1
f 96/52/1 101/54/1 79/39/1
f 31/61/3 55/62/4 111/39/4
f 112/44/3 31/61/3 111/39/4
f 112/44/3 111/39/4 26/63/4
f 23/64/3 112/44/3 26/63/4
f 29/61/5 31/62/3 112/39/3
f 113/44/5 29/61/5 112/39/3
f 113/44/5 112/39/3 23/63/3
f 24/64/5 113/44/5 23/63/3
f 47/61/6 49/62/7 114/39/7
f 115/44/6 47/61/6 114/39/7
f 115/44/6 114/39/7 4/63/7
f 3/64/6 115/44/6 4/63/7
f 115/39/6 116/44/8 53/61/8
f 115/39/6 53/61/8 47/62/6
f 27/64/8 115/39/6 3/63/6
f 27/64/8 116/44/8 115/39/6
f 117/44/9 54/62/10 118/39/10
f 117/44/9 45/61/9 54/62/10
f 8/64/9 118/39/10 28/63/10
f 8/64/9 117/44/9 118/39/10
f 119/44/11 45/62/9 117/39/9
f 119/44/11 46/61/11 45/62/9
f 7/64/11 117/39/9 8/63/9
f 7/64/11 119/44/11 117/39/9
f 120/44/12 39/62/13 121/39/13
f 120/44/12 40/61/12 39/62/13
f 17/64/12 121/39/13 18/63/13
f 17/64/12 120/44/12 121/39/13
f 56/61/14 40/62/12 120/39/12
f 122/44/14 56/61/14 120/39/12
f 122/44/14 120/39/12 25/64/14
f 120/39/12 17/63/12 25/64/14
f 67/65/15 29/62/5 113/39/5
f 123/52/15 67/65/15 113/39/5
f 123/52/15 113/39/5 24/63/5
f 62/66/15 123/52/15 24/63/5
f 49/61/7 67/65/15 114/44/7
f 67/65/15 123/52/15 114/44/7
f 114/44/7 123/52/15 4/64/7
f 123/52/15 62/66/15 4/64/7
f 124/52/16 46/62/11 119/39/11
f 124/52/16 65/65/16 46/62/11
f 57/66/16 119/39/11 7/63/11
f 57/66/16 124/52/16 119/39/11
f 121/44/13 65/65/16 124/52/16
f 121/44/13 39/61/13 65/65/16
f 18/64/13 124/52/16 57/66/16
f 18/64/13 121/44/13 124/52/16
f 91/65/17 92/62/18 125/39/18
f 126/52/17 91/65/17 125/39/18
f 126/52/17 125/39/18 85/63/18
f 86/66/17 126/52/17 85/63/18
f 55/61/4 91/65/17 126/52/17
f 111/44/4 55/61/4 126/52/17
f 111/44/4 126/52/17 86/66/17
f 26/64/4 111/44/4 86/66/17
f 87/66/19 116/39/8 27/63/8
f 87/66/19 127/52/19 116/39/8
f 127/52/19 53/62/8 116/39/8
f 127/52/19 89/65/19 53/62/8
f 88/64/20 127/52/19 87/66/19
f 88/64/20 128/44/20 127/52/19
f 127/52/19 128/44/20 90/61/20
f 127/52/19 90/61/20 89/65/19
f 88/63/20 106/66/21 129/52/21
f 88/63/20 129/52/21 128/39/20
f 128/39/20 129/52/21 107/65/21
f 128/39/20 107/65/21 90/62/20
f 106/66/21 28/64/10 118/44/10
f 106/66/21 118/44/10 129/52/21
f 129/52/21 118/44/10 54/61/10
f 129/52/21 54/61/10 107/65/21
f 108/65/22 56/62/14 122/39/14
f 130/52/22 108/65/22 122/39/14
f 130/52/22 122/39/14 105/66/22
f 122/39/14 25/63/14 105/66/22
f 92/61/18 108/65/22 130/52/22
f 125/44/18 92/61/18 130/52/22
f 125/44/18 130/52/22 105/66/22
f 85/64/18 125/44/18 105/66/22

g Fondo
v 0.002437101 0.0006505309 -0.0006743775
v 0.002437772 -0.0006503051 -0.0006743804
v 0.000668206 -0.0006503414 -0.0006743744
v 0.0006685109 0.0006504651 -0.0006743747
v 0.0006680785 0.002519364 -0.0006743748
v -0.0006674724 0.0006504899 -0.0006743748
v -0.0006674509 -0.0006503413 -0.0006743744
v -0.002437324 0.000650471 -0.0006743747
v -0.002437433 -0.000650258 -0.0006743747
v 0.0006678837 -0.002518708 -0.0006743745
v -0.0006676359 0.002519307 -0.000674375
v -0.000667531 -0.002518708 -0.0006743745

vt 0.4061834 0.1084218
vt 0.4062953 -0.1083841
vt 0.1113676 -0.1083902
vt 0.1114185 0.1084108
vt 0.1113464 0.4198939
vt -0.1112454 0.108415
vt -0.1112418 -0.1083902
vt -0.4062208 0.1084118
vt -0.4062388 -0.1083763
vt 0.1113139 -0.4197846
vt -0.1112727 0.4198845
vt -0.1112552 -0.4197845

vn -9.706631E-09 1.309455E-08 -0.006000001
vn -5.181368E-07 2.206374E-09 -0.003600001
vn 2.896986E-10 -7.376363E-10 -0.004000001

usemtl Tornillos_Fondo
f 132/68/23 133/69/23 134/70/24
f 131/67/23 132/68/23 134/70/24
f 134/70/24 133/69/23 135/71/24
f 135/71/24 136/72/25 134/70/24
f 133/69/23 137/73/23 136/72/25
f 135/71/24 133/69/23 136/72/25
f 136/72/25 137/73/23 138/74/23
f 137/73/23 139/75/23 138/74/23
f 134/70/24 136/72/25 135/71/24
f 136/72/25 141/77/23 135/71/24
f 133/69/23 140/76/23 137/73/23
f 140/76/23 142/78/23 137/73/23

g Fondo
v 0.002437101 0.0006505309 -0.0006743775
v 0.002437772 -0.0006503051 -0.0006743804
v 0.000668206 -0.0006503414 -0.0006743744
v 0.0006685109 0.0006504651 -0.0006743747
v 0.0006680785 0.002519364 -0.0006743748
v -0.0006674724 0.0006504899 -0.0006743748
v -0.0006674509 -0.0006503413 -0.0006743744
v -0.002437324 0.000650471 -0.0006743747
v -0.002437433 -0.000650258 -0.0006743747
v 0.0006678837 -0.002518708 -0.0006743745
v -0.0006676359 0.002519307 -0.000674375
v -0.000667531 -0.002518708 -0.0006743745

vt 0.4061834 0.1084218
vt 0.4062953 -0.1083841
vt 0.1113676 -0.1083902
vt 0.1114185 0.1084108
vt 0.1113464 0.4198939
vt -0.1112454 0.108415
vt -0.1112418 -0.1083902
vt -0.4062208 0.1084118
vt -0.4062388 -0.1083763
vt 0.1113139 -0.4197846
vt -0.1112727 0.4198845
vt -0.1112552 -0.4197845

vn -9.706631E-09 1.309455E-08 -0.006000001
vn -5.181368E-07 2.206374E-09 -0.003600001
vn 2.896986E-10 -7.376363E-10 -0.004000001

usemtl Tornillos_Fondo
f 144/80/26 145/81/26 146/82/27
f 143/79/26 144/80/26 146/82/27
f 146/82/27 145/81/26 147/83/27
f 147/83/27 148/84/28 146/82/27
f 145/81/26 149/85/26 148/84/28
f 147/83/27 145/81/26 148/84/28
f 148/84/28 149/85/26 150/86/26
f 149/85/26 151/87/26 150/86/26
f 146/82/27 148/84/28 147/83/27
f 148/84/28 153/89/26 147/83/27
f 145/81/26 152/88/26 149/85/26
f 152/88/26 154/90/26 149/85/26

